<?xml version="1.0" standalone="no"?>
<!DOCTYPE svg PUBLIC "-//W3C//DTD SVG 20010904//EN"
 "http://www.w3.org/TR/2001/REC-SVG-20010904/DTD/svg10.dtd">
<svg version="1.0" xmlns="http://www.w3.org/2000/svg"
 width="131.000000pt" height="123.000000pt" viewBox="0 0 131.000000 123.000000"
 preserveAspectRatio="xMidYMid meet">

<g transform="translate(0.000000,123.000000) scale(0.100000,-0.100000)"
fill="#000000" stroke="none">
<path d="M785 860 c-164 -12 -201 -24 -175 -55 8 -10 18 -11 34 -5 12 4 38 10
57 12 31 3 34 1 32 -22 -15 -171 -15 -188 -4 -208 15 -27 35 -18 27 12 -3 11
-1 67 6 122 l11 102 71 6 c96 9 110 14 95 32 -6 8 -21 13 -33 13 -11 -1 -66
-5 -121 -9z"/>
<path d="M1064 698 c-25 -68 -54 -79 -54 -19 0 42 -14 62 -24 35 -18 -48 2
-114 34 -114 28 0 28 -72 0 -100 -25 -25 -28 -25 -73 6 -21 14 -41 23 -44 20
-10 -10 30 -48 65 -63 30 -12 37 -12 58 2 26 17 30 30 38 122 3 34 13 80 22
103 11 27 13 45 7 51 -7 7 -17 -8 -29 -43z"/>
<path d="M200 732 c0 -14 215 -222 230 -222 8 0 -37 52 -100 115 -107 108
-130 126 -130 107z"/>
<path d="M500 728 c-76 -20 -78 -56 -3 -84 65 -24 76 -33 62 -50 -14 -16 -62
-18 -90 -4 -14 8 -19 7 -19 -3 0 -14 40 -37 66 -37 32 0 74 30 74 54 0 30 -25
52 -77 65 -24 7 -43 16 -43 21 0 15 71 24 91 12 21 -13 35 1 16 15 -22 17 -41
20 -77 11z"/>
<path d="M850 719 c-19 -12 -36 -23 -38 -24 -11 -10 -12 -118 -1 -131 46 -56
161 63 140 145 -10 35 -54 39 -101 10z m80 -23 c0 -46 -49 -116 -81 -116 -38
0 -33 30 18 98 24 33 63 44 63 18z"/>
<path d="M147 702 c-16 -17 -11 -24 97 -131 80 -80 119 -112 130 -108 9 4 16
12 16 19 0 7 -51 64 -113 126 -108 108 -114 112 -130 94z"/>
<path d="M110 650 c0 -20 217 -236 227 -227 4 4 -46 60 -110 125 -64 64 -117
110 -117 102z"/>
<path d="M730 482 c0 -17 3 -37 6 -46 11 -29 20 -17 19 26 -1 48 -25 67 -25
20z"/>
<path d="M798 492 c-14 -3 -18 -12 -16 -40 l1 -37 4 33 c3 18 10 32 18 32 8 0
15 -14 18 -32 l4 -33 1 33 c1 20 7 32 16 32 9 0 16 -13 19 -32 4 -32 4 -32 5
5 1 20 -1 37 -5 38 -39 4 -50 4 -65 1z"/>
<path d="M408 468 c-2 -15 -11 -24 -25 -26 -17 -2 -23 -10 -23 -27 0 -18 7
-25 31 -30 45 -10 84 29 74 74 -5 24 -12 31 -30 31 -17 0 -25 -6 -27 -22z"/>
<path d="M630 420 c-29 -6 -31 -8 -10 -9 23 -2 22 -4 -13 -20 -50 -24 -72 -46
-37 -37 14 3 41 6 60 6 26 0 31 3 20 10 -12 7 -8 12 18 21 18 6 31 16 29 23
-5 14 -22 16 -67 6z"/>
<path d="M461 386 c-8 -10 -9 -16 -1 -21 13 -8 30 3 30 21 0 18 -14 18 -29 0z"/>
<path d="M703 373 c15 -2 37 -2 50 0 12 2 0 4 -28 4 -27 0 -38 -2 -22 -4z"/>
</g>
</svg>
